# xmcd
#
# Track frame offsets:
#	150
#	18648
#	34602
#	51064
#	68040
#	81012
#	98157
#	110689
#	122741
#	136753
#	150918
#	165810
#
# Disc length: 2457
#
# Revision: 1
# Processed by: cddbd v1.5.1PL0 Copyright (c) Steve Scherf et al.
# Submitted via: VisiTrax 2.9.5.180 - For more info visit www.synapsa.com
# Normalized: r0:DSETVAR1
#
DISCID=8709970c
DTITLE=Various Artist - CDX 253 November 2000
DYEAR=2000
DGENRE=
TTITLE0=Jo Dee Messina - Burn
TTITLE1=Daryle Singletary - I've thought of everything
TTITLE2=Sawyer Brown - Lookin' for love
TTITLE3=Van Morrison/Linda Gail Lewis - No way Pedro
TTITLE4=Trick Pony - Pour me
TTITLE5=Bill Engvall/Julie Reeves - Shoulda shut up
TTITLE6=Billy Yates - What do you want from me now
TTITLE7=Eric Heatherly - Wrong five o'cæock
TTITLE8=Rick Hertless - Hey heart
TTITLE9=Laura Pursell - That's what christmas used to be
TTITLE10=Henry Hipkens - Snow da
TTITLE11=The Xmas Balls - She left me for rudolph
EXTD=
EXTT0=
EXTT1=
EXTT2=
EXTT3=
EXTT4=
EXTT5=
EXTT6=
EXTT7=
EXTT8=
EXTT9=
EXTT10=
EXTT11=
PLAYORDER=
